<mxfile host="65bd71144e">
    <diagram id="he4NCdh-1woeNivIxR7W" name="Page-1">
        <mxGraphModel dx="357" dy="130" grid="1" gridSize="10" guides="1" tooltips="1" connect="1" arrows="1" fold="1" page="1" pageScale="1" pageWidth="850" pageHeight="1100" math="0" shadow="0">
            <root>
                <mxCell id="0"/>
                <mxCell id="1" parent="0"/>
                <mxCell id="41" value="Prétraitement des données" style="swimlane;childLayout=stackLayout;horizontal=1;fillColor=none;horizontalStack=1;resizeParent=1;resizeParentMax=0;resizeLast=0;collapsible=0;strokeColor=none;stackBorder=10;stackSpacing=-12;resizable=1;align=center;points=[];whiteSpace=wrap;html=1;" vertex="1" parent="1">
                    <mxGeometry x="90" y="640" width="930" height="150" as="geometry"/>
                </mxCell>
                <mxCell id="42" value="&lt;font style=&quot;font-size: 14px;&quot;&gt;&lt;b&gt;Données&lt;/b&gt;&amp;nbsp;&lt;/font&gt;&lt;div&gt;&lt;font style=&quot;font-size: 14px;&quot;&gt;&lt;b&gt;de&lt;/b&gt; &lt;b&gt;c&lt;span style=&quot;background-color: transparent;&quot;&gt;apteurs&lt;/span&gt;&lt;/b&gt;&lt;/font&gt;&lt;/div&gt;" style="shape=step;perimeter=stepPerimeter;fixedSize=1;points=[];whiteSpace=wrap;html=1;" vertex="1" parent="41">
                    <mxGeometry x="10" y="33" width="160" height="107" as="geometry"/>
                </mxCell>
                <mxCell id="43" value="&lt;b&gt;&lt;font style=&quot;font-size: 14px;&quot;&gt;Traitement des valeurs manquantes&lt;/font&gt;&lt;/b&gt;" style="shape=step;perimeter=stepPerimeter;fixedSize=1;points=[];whiteSpace=wrap;html=1;" vertex="1" parent="41">
                    <mxGeometry x="158" y="33" width="212" height="107" as="geometry"/>
                </mxCell>
                <mxCell id="44" value="&lt;b&gt;&lt;font style=&quot;font-size: 14px;&quot;&gt;Fenêtrage temporel&lt;/font&gt;&lt;/b&gt;&lt;div&gt;&lt;b&gt;&lt;font style=&quot;font-size: 14px;&quot;&gt;&amp;nbsp;des séries&lt;/font&gt;&lt;/b&gt;&lt;/div&gt;" style="shape=step;perimeter=stepPerimeter;fixedSize=1;points=[];whiteSpace=wrap;html=1;" vertex="1" parent="41">
                    <mxGeometry x="358" y="33" width="202" height="107" as="geometry"/>
                </mxCell>
                <mxCell id="45" value="&lt;b&gt;&lt;font style=&quot;font-size: 14px;&quot;&gt;Redimensionnement (Scaling) des variables&lt;/font&gt;&lt;/b&gt;" style="shape=step;perimeter=stepPerimeter;fixedSize=1;points=[];whiteSpace=wrap;html=1;" vertex="1" parent="41">
                    <mxGeometry x="548" y="33" width="192" height="107" as="geometry"/>
                </mxCell>
                <mxCell id="47" value="&lt;span style=&quot;font-size: 14px;&quot;&gt;&lt;b&gt;Séparation&amp;nbsp;&lt;/b&gt;&lt;/span&gt;&lt;div&gt;&lt;span style=&quot;font-size: 14px;&quot;&gt;&lt;b&gt;des données&lt;/b&gt;&lt;/span&gt;&lt;/div&gt;" style="shape=step;perimeter=stepPerimeter;fixedSize=1;points=[];whiteSpace=wrap;html=1;" vertex="1" parent="41">
                    <mxGeometry x="728" y="33" width="192" height="107" as="geometry"/>
                </mxCell>
                <mxCell id="48" value="" style="shape=image;verticalLabelPosition=bottom;labelBackgroundColor=default;verticalAlign=top;aspect=fixed;imageAspect=0;image=data:image/png,iVBORw0KGgoAAAANSUhEUgAAAIoAAACBCAYAAAAfQCKnAAAAAXNSR0IArs4c6QAAAARnQU1BAACxjwv8YQUAAAAJcEhZcwAADsMAAA7DAcdvqGQAAHPJSURBVHhe7b15c5zXleZ5gASQ2Pcd4A4Q3HeKIrXbsi3Ja7m6KmaqO7q/Qc+fEzMR3V0d0d+ip3uiu2q6bMtLtzfZ1i5SEiVx3wCQ2EHs+5LITAAJzPM7Fy8B0nZLVTNySA5e8GVmvutdnnvOc849975Z60r2OD1On5KyNz4fp8fpf5oeA+Vx+kzpMVAep8+UHgPlcfpM6TFQHqfPlB4D5XH6TOkxUB6nz5QeA+Vx+kzpMVAep8+UHgPlcfpM6TFQHqfPlB4D5XH6TOnLDZQ/MJ75Wcc41/lbX9P/a/7rD6U/diee8Qef88f2P5L+6PVf4PTlHT32ys5YVlZMpcja2BUaIDt7E/9R8bKic/gOPHQtW3ZWtm/sjfrN6uqKraxkeIRfl5ubazk5m/dcXQ3gisWyH9yXk9fXtOnPnx/tfyRFeSRx7YPrv+DpSxxmoGxLIoTGVWXr36c1QmYNCbJuOdkC1yMpkZi36ekZm5mZ0/eELS2lbFVgycrOsoKCfCstLbXa2hqrrq4WcHI2rgqJZ2Zt1KJ/kJ1Hnr01X49W+ZcBLF9uoDhYqGRkxGYxtjbK1kZY0/41wKVrkBrLKymXJulUSiCZtvHxCZucnBZIkpYEKKsAxSwez7P8/HwBpdYaGhqsvLzUiouLXdKwPXjGRhaivDz0bIH00fyQtub1i5y+1ECBY2TRkmp4ALC1IWiYtYwaWuohWxJkazMkBITu7m7r7e+xxOKi5cRyrEQNX1paJulR5Pfjmpj2x3KzLZVK2oyANDY2ZlNTUy5xmpub7eTJk9bWtlfnfjogSFFV8/nHzvmipj8PoCBRNio/Sg4U7cuJBTWTXlm1qclJm5iYsHR6xRs7lVrSXdassLDQykrKBKx1W9T+dGrZpYkn3X41I+mTTlteXp4kUJbNzs6Kw6xaUVGRVVSUWVNTk0uasrKyh0DzhxL5jDYSfObLAJgvv+pxWfFwRQMS1b43AEfSyytSKVN2+fJV6+3tFc+osdbWPbZr106rqqpU45slU2m7eeO2Xbt6zbnK1BQqKGF5UjvFJUUOimeffcaefPKMn99+p8MuvP++dXV1SRWV2zPPPGMHDx4QcMpDJjZSVL2PgjgjacexnJwcB8sXPX3xc/ipKTQAlU7ls0FA6flR04yMjtilS5dsYGBA3KLUdu/e7RuNSqMjHbq6uu32nds2MDio3yuSLmuWTKZcxTRKYgwNDdmNG7esv3/Q4dnS2mJnzpyx7du3Owjfe+89u3LlqvObrcnBugUkJH7HJOm+LCAhxf5WaeP7ly4BjtAIoSGiRoHfLiWTTlCHBZLR0TGpmiWrrKx0TtHW1mYV5SUP1MTE5IS9/vrrzkHKKyrcwhkbG3fw7Nu/z/YKFABgWZIJKVZfXyd1VWB1dbXiNIUbZnLYyFNSz464CmQ3Shxji9SN53VjH9+/yOlLCxQqdytx3LotSyKgYq5eu+qkFW5x4vhJO3zksDU01ltBfLPxSCNjo/baa792IJ09e85yZP5euXLFPrj4gZvEhw8fsb17A2ldWJiXytolVVTo1wIWju3bt895zd27nXpml83NzQlEBa6ykB6kraBgIyEBKccXnat8aTmKe1W1YZ0gUSCuCwsLNj0z7Z/z8/OSAMveMMVFxeIRlZYrwKRX0rYk6cK2urIsDpIjddJv589fsPKyCtuxY5fI6pxU1WW7ffu2S5TDhw452BZlIWEmnzt31rZt3yb1tOoEtrSkRGokV1Jr0aVYOp1yspzeIMBVVVVuWgey+7CqASTkMQLTFzV9ycksKYAkIeLZ199ngwODLvrLy8ukIhq8Yejd42MTbhavqHFTasBlmbyrqwLSWiCV69JXqJelRNK/45xblWRaXV114GHp4DuBk9TX11uJwJGVte5So6K8wvnO9m3NVie1RBodHbWbN2+6lYVVhRTatm2bzqv4QkuOP5a+xEDZTABlaGTIOjs7bWR4xHt9JPInZRLTyNkWs2yRx7yCuB8v0GdeXo7lCEj8BgS47VMyjXNz8yw3J093FniSSzY9NWWzM7P6HXo+JDclMEJ6kzKxMcErZPnUuEOuXuqoTjynxEnyxMS4gwXpVlNTYzt3YmlVOYDJt5SQgOPF+EKnzxUo0a3/UA/a+thwnN8b5/kxfY8u00/f88htFtR4mLFDIyM2rgaZk7rJEXnEzV5RWeFWxcJiwoms+1sYi5GkwDknG0m3p6HMctXQqKWMOMaqGjeWneu/c2K5Oj9LKmTZkumkO++yYgE8mEtxAQwPLxZWkaQGQwPcMxbDApPkksm9qOdjevP8Bkk4gFItoBQXF/p12bqnu3+jFFVLVBUb/yG9ooMqhf4HYo9YTOFwuNa/b+zwe209uPXz4US7bLZXeA7pcwMKt32UbEaJY9H24JgqgqKTsXWZpqSsLfpcbayka/yULJsTSIZ6eu3evbsyXYdtVQ1TKhXQ0NhkpWWlVi6gFBeXWG4835ZRHwLRorjH/OS0g2tySqpIKmVlNR2AIAkBSCxDI4d8IVkKC0otH2+tKERhaZGVVpRZQUmh1dTXSs3UW1FxkRUKMHmxHEsLEFMC7Ph4v/LVaffvjyizMausqhVHqbfa6lqXPPn5cassL7WqSt1L1lO2jx2pYBTOy0l9bOzSb7bsbOokABwnoVmODm8h5TonGm/yax/ULwfYx402DnpbcPOgtjmAhIvaxAdJdT5/UZt8LkABIKStAPljj4mOh1JsfNdXiCqFINP4RUjz83PW19cnLjJos3OTlh/PDiK/placodTPgYiOj9JY4zp/wdXEgkjogr4n5hdtecPMBRi45pdFaNNSC1hKEhd6XsxVEL0VoKznSEpoQ73k5Mb0zLgVFhVYcUmxPgUSmccl+l4szgJZLReQKiqKrEyqJzc33+83OzNng4NDzlvw8BYLXDt3brPWlj22fcd2qclSgXNZ56rxabAto9BRtVFN67aq38qbvmeBXN+i+lPiXG10Ku9jWw6FRMXqg/2cpxN97EsJlUpbRGDxZ3jbhJt8LkBxp5ceEjH8zYdv5jz67o/XP/+9efjBNdE9FhfnrKO93W7fvGXDw8NWWBK3fYdabL+skubGbToj24aHhuzm9evWcafT2u+0q0cP24wkCGQUqZFOpqUq1h5UCoQ1LYAgcTKqtJx4gcAQ17mSLOtiNVJdkjdqnhX132zL5hx9xmXh5EqCAGJUVIFM5SIBpaGpyVr27ZW5vMuOnzhue1v2WoVAtCCC3CXJh9f3btc9W0wsSBIV2u7du+zUqVO2r22f5UtlAir6GB1js37CRjUgSQAKKssri5bz76GOHk14pDHZyScDmxtV6SkCY9Spozoh0X4k9kXpc/Gj8MBo22r+bd0fpciPEHM9LUR7+UEO95E00d7l5SVXMbdu3LCJsVGrqaqwUyeP28nTJyS+q3yg7vbtW/bRBx/apY8vW3dXtw0JJNPTs1IvS5ZZzvjzlQtpFgBi9E1nKSt61Aq/xUWycuIiLPn6vW7L+q2rLJOjgy72JezVkHnZecorn3EBJl+AkdSBx6QykhYZH3UeU36mpmdciiGlqqurbFtToxNdSjc9O2V9A/02JqkXUwNW11S7BKJaUpKASLKojjY7jPLntbHhb3EAgZQoUa8bX5XSy6vibhDpKVuSSoyJnOfHc/0OJCw77klHZHv0eaStbfW5cpToc+sDo99RckRrH73JLxFeOAymJ6ZG3ccxNT6m42YlhUVWIf5RDPEUwKbVEFgVPeIqPT197l4fH590Ajm/kPAKWlWFIV15ZrYkgdij+IzurhvG1IsBJmQyKzvHCotLLS4+Agn12CTlKb2cELCWnYOwcw1po+uzlVd6NqR1XfocJ52PYIucFki61NRUWaN4TIukxr69e6ypsd7KAYPKtyrJMC1LbHRszIbGR2kE2y6z+uD+AzKj97gEiCk/SCtM6yhRP2xBMtABPZMqW+j5y1KZg/fvez2MSv0mJUUx8Qt0D8a3qsWJ6uuq3IwnZdRjHIAb7RF16qi9eFb4rk8doHn+f0/cdutDSVFGtiL4QaISVO5VyKSqcnJm3AbuixTevavGTtseWQsH2tqsUjxgenTMLl28Yhc+uOSeV8ZhZmYWbEn6f1X3QWKs6L9Vz4N6jBoZV3p+QYEERjw0hNRKTOYxtRAdKyuvlCVTKICldB3AynHiuyrVVFFVaYsLizYjaZGr/OOsg+Osr62qqSDta5ZKLznIRGxcQsZzs6xYZnhNlXiUpMrhQ/vtzJOn7diJE06GRwSU3739pn3y8ceWo/scOXRIKuuEgwTuU1pa7rwH0x0LDlDQWnQatZz+Y2xLdaZCA/5BSdGbt6Web3eIrE9bXEBDOueqg+DvyVd5m5vq7Ny5M+JIO2Tlrem+SPrQAKgp2odn0T70YY75pgOfC1BIEVBIgCTSfZsZCcAhxfCw6tTFxaTdun3D+u/3qqGyrW1vi+3avt2yBKC+ri67/PEn1tneYfc6+6WG5r1CIKsAbF33zFKlIDmyMG0lntbVYFg/1bU13tshyDjL8Jhm1lbce8r+EhHMcllNeXn5fj88vnGBamBkyNbIx759NjIyZn29fe4PIVQB/0h5aakqcc1Ghu5bnkQ7Fs3s2LSlJNViAs+KzOpsNWhxUb4aqd72tu6xnZIybQf2W7PKVS5TeX5h1ro676hcdyyxtCTuonPUMUpF0FfEM8rKyq21tU2kt8Drik4VdIg4lvIBUe6426WONWxJSdCS0jIv5/zcvKWkCgE095kaG/G8HDh0wF544Vk7duxIuI0nrL0Q/rmVr0TpcxvriQAQPTACDRsShd/hHPgLPRv9nLZ73eIiN69L3ydFBlvsxNGT6hnFNjTQZ+ffu2Dvvv2e3bnTYT29Eq8TszalyljCVY9MV+O69JBJnBcvlE4usDxxDgKSatW4heqZSI7KigoX6THlhRzQq4pkpuYX5CsvkharIq/6zBd/SGfSVlCcb41SHXSxjCq8pKjEt3L1+OqqGvXUuK2pN5Zi9WjfqjgRwVBYRcsyuRckieZlcS0uLllS0mpOahETPC4Lqqmp2XYIMHh2FxOLavT7NiaJSYVUSQpNjE84BwO4AeBSnw/aMMu6pXavXL1uXVK98yLNcUkiiHVcgBfVcgmXEGgx3ScFbAZAGe3m3gcP7nf1qe6qZojUGNLedVt4zMazPhegRCAhRUCJAMIWJc4LzBpdv67G75F10ClCmLDd6lHHjhzxBu/v6rTXXvutXTj/ofX2D6nQMm/FQBelElYkgmPqyXE1fFyNnafGjucXuKjFR1GgHl6ofXxSfuckkt0rUh3JdEoWz7L6mFeVZXRsWb0qJaCsqpZXVHmQ3ZhIbrbsnZVlAUUUZVnPzxcA66vrnKtkBNSiwnwrErBydG8sJxoMwGZLsmWk/palHqSgLEtEFUCr27i3NqN85KrxyysqBbRy1Ym5XyijsgXJlXaCi6qLSVIWFRbTtzzNC4A3b9+2znvdyveaACL+JgmH1UbM77LAMStSjVeZYKxkMgRrwY+aGhvsxPHj6kg5odOqEwRyG/iO40bP8ebT9rmoHieoSltBESXP1MYjo+MM4H1w8UMbGxm2cpHVAwcP2HaZmumlpF3+5BN7++13rb3znkBy37kIkicD8vPz3NGGDi4REUXF0JNISJNCkV9+q3nc3T4LydU9s2NecgdNTI2Uo56dLV6QJ7DlCWDSX94WZHNtTQAzTFfAnHGA4b4vLSmw2qoym5+ZkDW0ajub620ltagGWrK6pt02ODxhVy5fEViL3IphGCCxMCcApHUvSZ/CuDXUVNqBfa124uQx29PaYk3NTX7/LpnQV69csnFZeKdOnrJD4i6Y9wP9Ay5hakRMq7TlCYxrqoc5AWZM1k1C4ECy5knCIUFwDcwTMD49FQZMpyeljqZlkU3a9//ye/Z//h//uwh3jdfXptlNbwpl55f/59X1OQMlAkb0PTrm5qqezIBde8cdu3bjqvR4oR07dNj27WuzRamU999+x1779Wt28aNLlkiuqJHT6jlqdvXSHFVGXJVdVFTsZI/KKdR3VAt+CMRueJZ4iT5X1HsX1dNS6tmxXKkoETs8onmMCQlUmXVxEoGtSIS2UGpFGXYTMysrLi6D9QNRFnlcX3XVlBtbt3xti5NjFs8s2zY1emwl5dKlqq7OpucW3BLLzS9SfnLdEUjc7eLcjC0vzVnWypIV5mRZRWmBtezZafsPH7Knn3ra9u5tVZ7X7OKH79u777zlo85HDh+2xoYmAWfc7nbedRM8JQsnJom1u6XViiRFhmXlTIivJdWJUGnJxJJNyDxOzOu5mOtSN4RI5MZzrFLWD0D5V//qn1tddaVjIfhoAkKwQB0dIOPzBAq3jFQOFgO/sSxoMDYsDo7SS86/955193arF9a6qtlW32DjkizvvP6G/fZXv7V7Xd0irBKdEvsJ6X78HBUS+fAa+MK25u3eu9JSIWLEkg55rnrmpb7GZDpDDgElg3QFZVW+FQlYuVJH69qfLYBlcvKkYmJWIJBU1DZYeWW1gFhgKd0/I2mRyZbKEfiWxDdQS3hPl3XfBBaRgJ5WL1/SVi4AF8djNjXRa5XVZbZrT5uNT83JGhn1UemkpFkGcruakv5atExqwWYnRqxQknHv/n321FNP2ZnTpyRZGiX6V2TxddhPfvJjVz1/87/+jT117ikTVu1d1dn59y/ayMSMVdZUixBXyuJjgDLtnmisl6SMAoYsZiVNpsVNFvQdBdsiCfatb75s3/72S3Zgf4ukITxtQ/Vi6osCIKHhKagf1DWN9Zk5ytbG//QEBB98E0LxU4QdW+125tJc/PADicQJe+KJk9bWctDJaPuNGyKt5+3GrXYbm5yx+dSqJRiwk0rIzRUPUcMiQeIlIqySQoWyWBjn0YNsIZGwRVXWLORRFSfUWEl1tZXV11uZLJ9C8YCcAvVyVBJqSvfK6L4410oLY1ZTlmf55eW2Jsm0LPWUHRf48lVbAnpWfr7liiMUFJUKkIU6Frd88YJsBgdVxkUBa25RqnFh2kollcqqm7VvzUFrUjlri7MWW05YWUWJrisy0R1Xr6mFlIAky0gSDadceUWpwF/usTK329utr29AjRe3lpa91rStySoFDIYdJiUp+vr6rb9v0JYWBIy5Jd/SiytScwnnJ4MDAzaqjoeK3rWz2b7ywtP2zVdesqNHDjqfQnptDguQxFMkUbyNon367x9NZqNGjgTRHwOPSy0dQu85SBxoYR9PnpmWGL3b6YWor6+1M0+cVuOLuIrMnhdIPrl01UGyIOKYEplYFYAK1EilqswCNW4RAc+qTDhGtqyWXEkS/Ciz0sVLOJp0TVyqqKKm1iobGqy4osoJJtLAfSxrsH3iZdd87Ad3d1ksbVUF2ptfaBi1CRG/TIYeSvzKskfpqxpNVq/7SbBAIMxOpEuLLSmJvSjVVCj+UlBcbitWKEtEhFWkuSB7xYrWklYSW5P5KtWm/KZUSdmxPBHiXFlKqGOcfrLSygp1ToGqjLwt28J8QvxkSJKwxA5LRTG1pLquyusYlboqaRKXpE3ML9nM+LQtSG3Pi8AuStWkJcGqpRaPnThmX//a8/aNF2UWHz3sFh0gWVN+vW0omerGLR5vJDq0f3j6J6keLnmgRhDfekC0n23z98Yz/XxQqww5inPs0scf2Buv/872799vzzz7rER1gw32d9lvfvlr++C9D+zmzXY1esIWJB0yqkAavbSkzCq1lRYUq5fnW0ZcA58B4zRjEq+M2+S6tVOqxioVOWXsBisj21331AESbV0SJFuWCdaM2t5SAk5aedxelWe7ttVYdn2LJXNFVBlRzhJApH7WMuI6eI8llkVygudUJcmFEevalBp1QT1zfnnBknNjFptdtILZdVsaHLVYYtZqS2NWW6jGyKx4BxicmbMpxp90XZZAmiepspKct4bmSvvOt79ux48dgF15A16+dM3+x3//he0/cND++T//G5m1+4SzuI1JEi+Ld92/P2a3VF/vqIN9JD5HvC+Eu6y8xFrbWu3r3/iafe3rL9rePdutOD84F0Mb0VXIPm1JuwEO1RUdQg0XtSPp/5N5HN3sUSkTEkX0DyUBSJnC9FqSaL529bJ98snHbiE8IUmya89+ka95e+etd+yXP/+VD+oxRoGJijMMk4+gIMZ1cEIRepgv6SBR4jwHMzdLxLRAx4oqKtyFDknNlWrAn+GZUOHXcfgJ3CFv6v5qZMxQ3Ny4s6tK4lYrKZVTWm0r2Xmu71fWBBIAr0pEkwN4NoqKg29Zt04pjxmcbZIUpZXKQ7XUYZnyKCK7BjCl2NZFfBmBjokcL2dillqTZBPJRQ3miw/FVY/JpKShLKeMwJQnKVkmCVIn/sUYE8FXDFfMz8u0bWr0uijWtWUqa1NTnZVIDdfVV4v0MpIel6pJ6vk59vTTZ+2fibieO33UTXiGBWgv+AiJ71H7BR9K9H1zP+lTgRI1/taLopv8cZDoHDaOuasZPSjUigj2dvfYj374AxseHpK6ecKOHjvqg1Xtt+/aW2++YxcvXpQpKctAnISxmHzGd1QpBCMxlJ+nxif+A1/EktTSyOiYiOyqNe3YYVVSMQBEYsTVS5h2IbAhTciPt6425cvDHVFBOmcFsAgNNWUFVldTYdklVZZcz5baSPgA4bqehXrjOnoeYKOvp1X+BYEgIYmzur5iBdpbLtO7rDBHeS20mLjTmj4TOmdSZHJ6UkBYEljjJZalRs4IAHkESZElWJKsIKzTsZERyxOo9uzaJZUi1aqjzA7oFelncHTvvr22c9d2lUH3kh6E+FaI1xxo229PPX3adu5sklpENWbboQP7RVrb3FmXKyMiVAHtgfSnpShWaM/Qllu/b6ZN2fJHUnQRamYrGPgeqR++R+eFjeu89Er8UAbVm+92dtp759/1WNKUSBz+ALym8IOxsQkBZNZHYFET+AOy1EDutVVKwTvUoDjO6tWjcK6NytJISkejRnBoCVvqsbkulvNQOSqeBKqrF2JMwiT1gBXynXHpgFqRZQPjRw3oDIbgsRzSK8u2pIuTsohW17DatEnhLKs8KeFmWXzDsjKWp4YqFFCKBZgi/c5Pi1sspm0ylbBEgYiyGnklv0znF1sqq8hSIuQZSZscqVOGDMhrLmoSv4gAOj2Dz2NO6kOqSdyIDsl4UZ5U7ZzM68XFeZUn7QAK1SxptdGSjGwfPNhqXxMfeercGZnFY/bmG6/bndt3vEy0DfdjGCVydgJ+Oo13go0U6mgTTJ8KlAgQfyhtBQ5pEyi6rbaV5ZRNTo5ad1eHdXZ0+vA/vgAIbn1dnQcbx3KLbH52Xsd6JWXGVBg1FhxAjZ0t0srwOJWZL5MXnwnqZFFWxKRE8QIqR+fhCV0Un5kjrEDWTlqmIWND+boOZxe1wwAhXldiT5Yl2VbYMpBeWVPa8NBGv/HUEkeGcF5RxaZVzOSK+MaKPvHMQmZ1vDR73eolBRrVgJVSP4z5LIgzTM2tSVWItyypETK5lldQZiV1jZZdVW2JvByb07NSIsi5kj45ugfVpZZzUz2WI2tMUmZGHKdPBHZO5WFcirEoBhbxMvf29bol5M0nYNCgLOGxLtmlLmXFhWV2/PgRe+H559xNT+rq6rEL59+39vY7HkBFPC9tBWiimQz/s/SpqicCyVY1Q9oERdhIEXD4jVhkjOLatat24/p1d/ggEXAGkaf9Bw/Yk2fOCBD5Ntjba2+/eV6E7I5bLVgmqB2cakywqqyq8sh33NxEot3rumf3JU1isoJwjsFDsA5WJZlWJHkgcvQWAqyRSqtIDxpeUoM8oGYydABt/OGqxz9SURq3qpoyWy+utKWsPFvUvTIqCzXAOUndZ1WfuRL3FWrkOnXjWjV8MSEGIujzq1k2nly36aWYQCnTWXwkV9ZMDqAVP1iW1FlYktQUH8uRtJFcsfWVlMokwi7JpsqWBYSqRA5Sl2viHHW+Ubezkiazc1Jh09NWrHLv33fQ6yqjvKv2g4Up1AFx3P1VVTV24OBhq62pt+GhEfvwww/t2vVrqoMVHwAtKwtRgaSIn2w0pX9u/f2ZyCwXAJRHU7jRJkj4zkglevTGjes2ODjoIm67+MOOnTt9gGx0bFS9LOOz79r2H1DjJuzSJ1fsw/c/lg7uFzmVlFAj40ovloVTV1tntdowDVNSBRN4GafFYVSPeTpOgDMk0d3PapAMKgafC9KDcRLdT5aw7qdGkznroYbKL8dXdB5kNSUxTuxGRWm+TMkKWyuuUN+UmE8kLU1vpaxSM4X5WVZTlGMNBXlWIZBk6/pEUipGJvBUUtIkRcCQSOlqcFbl6HhGeVjRs1b17HVZHDx8mRCAhUWr0H1XEnMq85LyJfUsoKwJyDE6pQNGQGlU+WXeugTUxgDj9avXVOa4nThxWhZevq7T/XWdcunSAQ2CVRbLLnDVzVAGW21djU9jmZmZsc7Ou9bd3etjQoXiS9yHKozUT9SuUfpU1RNE08OnAYpH1Q7jIIwn9Pb22ccffyxJcs3R37x9h51+4qztO3DYTdkJSZaYVEtRcZlyk21j41M+TE6sh/sEdB9vGAEMNYNEYbyGKLL5uUXp7zk3UxnnYNQ3yIQwAk0+vbJ1jyXdj0DnqckJS0inr6uS42qswqJCEeJN5p+RhFrVc1GTDLxRDq5HNBNPS+NANItFlRoFkm0luVZTCDDXbCqVst65pPXMpG1sfkUWnUhSUqR0VeDMLFpqeU4AlLmsey9JX8UKyq2kssFy4sW2JqSvJdQpkH56TkyggG8IHpKmUpeqo7SANreY8ACthABfIuuP2YxTqjOMgqmpSe8MJNoXs3bVuYa+a4dkpXOZXEm9vW177Pnnn7VvfvObUvnbZVLft3feeUf85S27fv2mzYoTkSKH6KNt/KlAiVJEWtmoTLatid8EEV2+fNmGxdqramrs5KnTytSOjTMY15kXeOY9ZoRIMvRranlVvXBVFR+ysgLBRDjok2kRDIlPTTL7jll/OqBrsEJUCzpZPSmFM0xmrCpbVaRjqiwIqv4ADkBIqqIXJYU4N08NwOZTNFQhBAfGuC+VosbKpsGodTXSunopYzvxnHWrlWVWJ3VYqPPmkwnrE/h6ZT5PS+XI1LKCPAGa7K0uWc56QnddsLRvOO1ESAWU7CUdTxO0XWwrAvZ0aknmc7YIer7kF0AJYAGkKwBex5YE1EVAzDGGKJyE5uqeq7aYnHdzmvI6MVV5IKz64hvk3f+k8lBjJGJnmVz/wgsv+GS2wcEBu3DhfevovCf1HUzmkGhn1SOoU/rMQIlEEZ9klg3QYObiE3n//fc90oyZcMeOn3CQEJjDfJcozUjCMMKJSimTjqT38HsxseRWEWimwIQVYu/jpmeeDvo2h9hU1QHWi06UWI1Z1ooqnx6ka1PLUjMQUvX0VW1rlAwfho6tLC1ZEpCK10yNjYnwCqy6rkD3Ly8uljlb5GaqZKduLWnFyHORer+25pI8a8hX3tbSNi7C3DWVsO4pSZCFjCSFnqGKFG3Xx5J4TFKbpIkklNCvzKYtJpDkZlYsR4DN6PdytiRLpeqkosDSUmd4lskH49VYx9QrI9lwK0aGFyVx5pV/Og91kQvIZXURijExOay6k4Td6Bje/3Ue3AuQ0NmyPGYTbiW9qHxSPtro5IkT9uJXv+qAIZzhzp12+9lP/7va8QMfzYezILFpE9I/CihbRRJxEmHa5C0B5ZIedMcLefr0afvGN75hRw4e8sYOeFS9wQPU89GBWC9svp8G1kZBCRpi8BCAFKnxWHekXKK2uAz/ie6l5+IboRA+fuSNREFk0QgkeGadD3A3dU0nq+qJa/RQAXJqbNKGB4ZsZnzS0gInUgPGEhffKJXZXV1SYrVlZVYt9VRZlG8VxQVWnZ9teetpm0gs2J3xabsxMmcD0+I1yRzLz8SsQCDIXp6XGTsrbrLghHU1pWfr9jFphTx15jxJpqwVprMuWTpHACoXKAWUtUKpQNVRjiw7fBwu5fjUPtQPDr2UyrSs+qGMDBuo6RxITGobGZHKlmQDEGlJHSyfMHKOKyCY+zS0+pW+S1LT03QfpER5RbkowSn7q7/+vn31q19x6YFk+cXPfy3acF0deNHPc+QpPQBKBACo2+YGRh2nOuYfLtogQr/4+a/sx6/+TGphzo4dPWFf/9rXPXaioqJKBQo3j2bOcS/2xHCdu09FqJc+9X1CvLBhORA9na/8ShVIxOcXefhALE8WxPqyVH9SAFhxopct60JdRL+ltsQHUDs8KVsqZF1SJpMWWJLBAmKdE0zeJVVkSnlfxRXPikvTAs1gr91ov279Q11WVbhqzx9qse8cP2yny7OsYXlAqqLXbo0P2/nhWbs3nZBFlrZ13TdPwMuVZFvXRhBTWqIFFZelfLBlnN+oM6ksacaSGCcS0GKphOWpAbPWJYOyxEEkJVMCREYgjaljEM8bgyQjCVWHa6oPQIEnKUYci+pgndFs9fRZEeih+xO2MC/VtiqLTMR7RYCCT6ly9KmOB0IkirLWBL5sZiYSqxMMk8jpRmpp3Wkvf/Mb9pd/9X3b07rHfvWrX9t/+28/dP5IZyMFoOh7AEkEjejbJqJoe8Lq7t69Zx988KFduXrVYyyYZ3vs2HGRpb0eXsd8XtQkMayAJAJaYOGBW6A+0MN8z1XFMLgWUy9aVwEAscqgFNQAOVwVT0it0iOZVK6Dqhg+4SMZeop6lN8MNYSe1f3XtBGG4ORUZfPzdA4mclK9cF5AmZ2dUuPP63YrUj95VqZ8ZEvML/R1WaK/02xx0kMN5tXoi8SAyKIj8CiTkSWjawBeSuVMa0O/Y6JDitf1DGY7EhW/LKAwEyCjustWQ8ZUbgezsknkG+EL7qvR+XiBMyo8UhHzHeuPGNwC8uX3VHkEtBUdWxQ4p6cWHCgMatKBMQaWJbmpQO+rup9qUfWI8zHmxkCPjI2797rsqgjsRVGGm3du26xUTXNToz3/3DN26tRJn0by/vsfujqan1ugMTDbVcEBCy41wk/+vOofShCf67LDIa1Ehz//wrN29NgR6fO4MqpGggQqkUmAhp7032RWhQY6mHGoLVQIz8rNjUut4GSCjAkVuhZyllKhMVn9nvqH2buq31gm6ORA/PBI0kNwbOm4iB9eVgCKZ9hVj/Lg50mtxbIg4UzjkKoQ6OIywZsamq2hbpvOzberd3rsp795x3755kW7cXvQ0vNmOyXZDpRIBYlP5GZJDai3LkjCzYmzLCkfq/R85ZtQxCWVKQkC1KuzEZuoHG00GDKVEe2MJOE65F2AydGxGKBQWYlrBYxJkd6kjlF3uPELBRT3PamjqQpUb7oXYNO1WIjEoOC1Zg4z/iK8uesiaEgtjtMidCRUVfvdu/b2exfs9Tff9u3Nt96z373+tgeGMb2FhBP06NGjkuZF1tHR4QHkpAd+lEgMoeNo2Gibmp6yq5ev2EcffWTMsSEouZWg5xPHfXmrMvGH4NmjcQKPIek2/j2yZkD87dt33DvLWiIsebV9Z5MqZMWGhoett2fQhodGvQcz8svUCWx/DwtQT2QAcWFeJqfEONJJHUS9Dvc7EkUgVf79yeBKIApWGkDVd0CknoaaysnNkhSsssbGRiurrJIJXqR7L9vE2IT19/SL/XdbR1e/9Q5N2PDYjCWnZqxYN20QV6qrrrZ8gTotybKUkLUhwNNocCU2R74+spF4Ai16H+m3hvpRw+K845wsuNrMtGW0ZYu7AHaswFhuvgC3bglMZknL6soS27Wtzprrqh0sC2rM3t5B6+rqdSDVNdRZfUODT8inYwIW6itMTyF+V1xG9Ua9Ywb3Dw77rMUL0ggAoLmp2U1u3Bq3bt1W3eT5PpybXNcuoFSp3CzZ4a0YgQTdBUzIRFKVMCYr4fatO3ZL4qm7p9srn9WFXvzaix4XwUJ5gAFbnRaiF3Mv6mMraEjsh+yyj7VcEW+oH7yuOORq6+usRFIqV0SWuTioLureR3m14SMgURn4WZEsND5eSSwbxDJzbJy0qYH8uKsB8RpZQb68hfhOcXGeiFyZlZaXeYT+cmpVIJm27t4hu3K72z651W33+scE6CFrv3LH7l68YqPX7tjq4JgVSXRXqJErpX7KpX4KMwJeOiHeIuYq3pMlHZK1LMkhIC2nEu5sy0h6IEXduae8MkcpIyCsLWmTNEAyMKeZyHlCMpmhKFy5276yrNhKCvP9e2680OYSapOJ6UB44Smy5GaIPVlckvWTcjcD1cRQhRpTfCfHB03f/+Ci/fq1X9v94RGf5NbbP2Bd3b1ex8QZz80v2G9/+7q9ITDNzMx6aObJEye9g+E0ZWZA7N/8m3/ztwAguH9Dw6LzLl+6Yq+99pp7Unfu2mnPP/+8HT95wqplSmGZcCYCFbGPFULjkdzzCan0v6ArAR8Wzd273dbZ0eVH6mprXaqwXhrXT88uyNybkQSbkwgOE8kpKIinYeMFIWgaC4A5Ku4I071ZRRpnm8+ldTUVABU8r9ivWFlFviZJVU2VxfPzbE7canBwVKb9uE1Pz0tKqednsfQFEfyF3rvz9ck0DEzRxNySDahixweHbC2ZkEUUt7oq4mLyaQ/xAuVHjbS2qt6MHSsgrUu1kZ0wcq2TOFF8bA3JNjVlKxPjlp1mYLRMkq1CknTdxqdmbRJ/j/LdUFVqbTsarb6m3MpKZL4LREgTVq6c4xyVj3ib5uZtHhVHOzgRZvxIKqtA+ef512/cEp+8ZgsCU2vbfkmhJrt67YY73OBvBF5555WEYQI+lmaT2mVZ6gyHHh0cnhT0ghINTKKXM5kawsrNaMgDB/bb7l1SM1IJBfAJnbcqvcfwPCBzahEQEeCx0Wicx57of3gKvgBGKplqMKMGI+FthBRDhsk4N0xhmSRTvtFT2JcvtcfcHPIaCCxqR70IbqLfiHq+w1XQAXl6FmutMaDG4nxkAvI3LjN3QhvkLiXd7epDVZGdEw8hkohtAZuxYnr3zGLKxkYnbKCry4YkjieRriLCpTlrVluKGR33SPwVSZHU0oKkBqQ38CliSyDLywJPSiZnStaPTrC4pAhLpzOGtCjJs6x6dNNeZaAl8pX3Yh0vKxZgCdIS4BaX0r7lKJ9xtQN9IqzMAE8JmxNb3Qcy7L4UfWflBijE/aEhG7w/pLqft3EB4057h3tlWSGCa+l5AIM2zVeHIs4YtcRiidI2ElFqQBJu34GBQV/obnZ2xqPP8OLt2rnbj8MDWNqKRqef0ODY8Nyc+yCV/EFwA30GCYWhJuYv0csx9gEk1jibFGIZi8HBxjSNqupK6dtyYxkJSO6aeicOOUQr84iFNGOtEkhoTNcAStzsbG7dqID4CtiYrwJACBtEMsFxxkYnbWRoUmBJKX+6lyRGHImklgmDAZjSlEmAk1rJyBwV08Cd6UFJDCtMz05br3hWb+c9mxkZFd9YshKmjuaJZ8RkHq8taRNQVS9r+kQ6rDLoh1tfaip7ecmj90uKCwT6QifAU7I6WDAZqVDAIGNB3IrUUHF9985JsLg6FlIBtSwkq0wCp7ge5aYOIwMBNRekabD4WIxw+/ZtAmVc5R+1nu4uV9lMeEPKs5TIktqCSXHMTmxubvJwBvKN9OY4a9fF/u2//bd/SyOTPvzwI19GUy1iR44ctXPnztmeFiZN+2FvZB+w4gx9R1diraj99ZuqJjGKGUDj5rFOxk3EdR3tLP1wXQWQypKOzRFnYH2QitIylzSQVXr6jEyydFpisaBYwKm0MqmemM6nh6Dr+e5m7lLCQeeTtNXjBE/lJ8cHCiHdWFNUFr2Ckdcl9bw1AQSLgASwpCPUQOsOJjLr5rfAkSULJytbx6R63P+jR9CQ2uFmLMSSMZfEzILl6bqq8lKrrRLIC3LRe0Ha6k4MckJsi+O57sQri6sucN1LumQJkIXiIYR1zi+oM8jyQYpVSkLtaqyxFqmePbt2eL13dNxz1T06InUpgo0EKBDYGpsarKamWudICsmMRn1ADTyvqn7iferq6qWeGn1glbGhmI5VSd3t3LHNDh866AFkRP8fPcqqmXUuiYmo6+vr9bBKeEzs3//7f/+3oJDQw7ffecd6enp8zY5nn33W6sW2qRBiH4ZHhn0Mh9UCfMUAoRDJQaZYKwRpAVAAEQUj4yRm+ruOVrp7t8t1JpIJKRIXyktlNcEdyiRF8FAuybxLSLwmZIkE3iDzWecBLGHBn4HX0utBz3cFJ2Di5vdz4RXKEwDG0mCaJvNZMCP99SkCCfkLQMYy0nNkPTlYtAdO4S7xbAEFRyAw58E619WzNmEvTIeYnrM0fgbp8xwBLE/md0zAW2dWoK6hRvDl5Eq6lKqXFuNcTAskC3MivSnVm+6neiCcYUr8ZEUkuKo431q3NdjxAy0CyTZj1WzUxSeXLttg/31bXEh6ZwKIFeJJ9ZIYlWp0yC3jOEhSgODtofopIZxSan2HOmRlRbmVqp6Z/3z08EE7fuyISOsxD7ZmNJ8gdyLqSCyBSpAZ4SFMe3XzmCW9GfEdEitubGwScX3GatV4UyJ6+P5/9avXfLbeu++et8sylTG3WLwXwlNZUek8AM5C8mFu76lBHQXwBKB0d/e5ww4xW1xarALUbDixVkRuq6VySr3HLy+vSaos+gw4xjrwD/jYjyoCqwc3EjP1S0tE2CSdOE4MLcs7EC2G1MG8A8ys9Eh+2C9BIDWFDwa/ChIR4OG9lVpT/vGBYlK6NECaxJVzQIKJizoFkxAy7cvTeQVSjzjWFiWeCV+cliW3LFUZjxU4MUaNodSh4YUCUGYec3vcMuIpcdSoQD0lnjaijgfPyFOn2lZdbsf3t9jJo/u9o6Ker167bu3t7SLhC6ork9U47x2noaHag5kIHSgoZD4TxJ5OECQ6lY/XWhXgqoalOHbt3G4H97fZQfHOvXtbrLmxXtKXSW5IT3VCOoMK+uGHF+xHr/7Q6+zI4WOhBdHfiBkqlCFo1hvDdGJZ8N/97k17/Xdv2YcffGSffHJZ/OWaMt0hYH1ib7z+pq9NQvKxF92O+vSMIqvpoX40JGbo0SMZRWZaKCGLxEaMDMuaUIFK1Xt89QJffrzaAYGIZYyIeSyY7N7QujdxtNtkVldW16gnEW1PqOK6zl92PoNXVA+jZdWuyoWey+oIuGAQy2uySpbTCzqckhQSEAGGiGeWrlN166SYMQKVMKk4cYo1cRCJC5c+7ibXKezLaEurgZckOWam5m3s/riND4zYrHp9WpIRd35c9VElnlEtcBfq+tWFWVsS12GZsNUUL2RY1fV6ruqjVjxtZ3ODbW+qd37FQCvxPUzazwJsut9KBomRLQIteQoXEp9gCAFTnOPeCN5FgxsfYo58i0u9FmHRqb6o+7g6D5O9cnPhqUz8Cup3ZWXJunuk6jo71GmXPcDJgcIs+xERM9i1m0ai+jdu3rHzF95XQ04JOESY1UpyqKeosXdJbzICCYvGlc+MeggUIs8dX/p0QCvDZDdKPhqsbUmWDBYPJDWBK1rA6envV/lWrbG+0g4daJVo3Ge7dsh8luhcxYWeQCWpcb13B8JKjAqRWgQ2Faoh4CNL+DBEwrCCyAd8BmvLlZRKm6dKyVGl8CzvbUgXVSaQJgAIAio8ucpZ13P1FMvE9MwsKl/3XBeYGEvJ1m/6guojW5KOcRqUV1IW0qxM37nRIUtNylpIzFl8JeH+lhyR2pgaFA7D2MzM9Kx3mCIBqKmyyA61NtvRQ622Q6qH1RGI7WHlhqH7I4FX6ZF4cCGagJ1yUdFIVZ9NoA3JQN1wMuAI659k+3hUUgJhZWVR5WR8TNI6MaMOyO9gIQKuqelxe/e983bz5m21lThVWYUP4Lrq6enrt/NSMdt27LSjx4+L6S7q94d2SSB47tkn7S+//7KYc6P7BvDE/st/+S/s2PGjOm/Gunq6bG5x3toOtFmhkMr4C16VdfUcyCe9OvLOjo5MWldXv0wzcRwmVwnp8SIRJWVoWCZYkawZVFBjfYWVS61kZCJPTS3amDYG8/LyWdIBU1GVPDFmk8PjIpDVroOXRRoxA32sQ8+n0vw7vU6VikVHaAFcIltbIOb4g3J0LktdqMIBjDoV0WzEpeSovguUR1QCzjHWcCN4GSlJmVzyCLhIIV/fTfeMq2HyUVmZJYnqSauOZ6zYZLlN3LepsVEBSSomv1TWVI5Nid8wn7qqNM/OtlXbN546amdOHvN44l61yeuvv2W3bnbIjF/Sc0V4ZdoTn7O0OCdiWmAN25p8fZUStQl8D9WTKwOB8TNGovEveUCXnpUllZ4RQV+VnFwX6N3vBD2AB+YW6TNH5nvaLlz40P7zf/k7u36zXYbMPmtt2Wste/YEoHT39NkHFy/atu077NChw25q3b7T7qPE27c3W40yPjUz51M87w+P6QZt7gCagNiKBMOKT548EXq1P1yNQmZUofR6EI2ESaaYBjljfQMDHhubp/NREagW1B9ucclOZ+ToZ6ZWFrJiIrxFDY8Z6K54EUIapSheLFWS65yEQnu8hsQpg49O5gAE/UqV4kuDKkP0TNQXUf64zBmY0629/3k/FKad7Oq3j0YjWVQGH4VVZa6rYvES04tDRQs88AJhBhFeVBS3ajVcSb6sunXiUZKWXJix2WnxkASzDnHiMoCY9vN37W62588etW+cO2KH97XoniYp0mnvvHvBrkrNT07OGOutMHTBwjgso47nuUIWVr1UVAne21JeE8NSH/lBlbg6CeELlN+BTSdQJ0Z9oploE84jepClWG9JgvzsZ//Dfv3ab21waNgqa2pt/4FD4kC10iZ1ASj9ariPPvrY587sbW11P8aCmPn9wftSCwnr6huxTkmCDy5etlu370pkyb4W64f9ewDvgQPiFq3OmNUmyhhAUeUpM/AeCu9+FulASOadjnb1jgVfe54ewhqwpRJveAI9zla9oLa+Rmy73prFQ1h1MbUsc3RywuampyVpVFEVVVbX0GDjvKxJG2GWrGYQVRLPpor8k95DC6mR19TYNJRy6ISQ/CH5yG8YIyLvADuoUebFZ4Qe1jnxuFYBB+nEKC9+l1wBIl6YK5BKOso0xj9SXVxqZcozrvlFdQiMBTy3PvCpxNIT8Zw1a93TZF99/oy99NVnfNkxHIsff3LVfvPabzyOmHhW8oI6WcCfgaWpZ1O+yppylb9CbVXoA3glRYF7oN7zcrD+8t2ydKAIKSq65ydIUdRvmO3ISP6ly1ftv/zX/2r/8IMfqhMP2slTJ335MOo9X2qxVrhwnYA5yUx7Ggy3d0VlmbNjnC+J1Krd7Ru2wWE1yNi0raempL/u+HoluNpRV217JWFcxwmwVLgKQ4H8t0S3cySlUp9yUOn2vqNHCcLHfJ5R2esZ9Vr04p2OTuu8d8+P11fl26mTe+30iTaRvBr10jVbWVi20cFxqb0e5S/lY0T4C/BKYv9j/TC6nacHYxLiZ2AUNsTJoLcBsAikeicqi7AAos/Y1lcZ6FPPT+lYklhbqS9JueVkQmRRJq0kSHCIEVIJQZRFkydJoi8sYVEi6wMJkpyZtjyVsVjqlPXYaHCkwcLclO6/ZDUVBXagtclOH9ltbTsavJMx2fzqlav6HPD28LVtAZeqCunlk9Ukiag7pFFevlRdXJJRxcLZhld9DaIrVePIkESk/sMtliXNxK8knYvyy/W8It0/X0S5x8d53n73PW/Pvfv22Z62vT6swLQWrFk6uUsUVhB86603fe0yxkRYo4PXj9CWeYQJqrAsb1laXCgQ1dk+mVf7ZV6xeN3xY4dtz+4dQrBIHe0A/VMGgTG/fSIYJdWGJcRr16gIJnxBahl2B9lEukE8cU3zrh3IGTXAGijFxXGrUoNXayuTmivJL/ZKH5+Via7GdRKtxkZlUqGAFm8mPgQ8vHgwIWWswoS3s0gNTUVjaOvDI9wYMCwsyLPi/DzLRzqwLzfLX9mSz6w7gQIQVKgHF0lyMGBXXS5+JeLIZI3q8lKZzFm2vLhgafX+5SWRToKlkkvKW5giWiLV0NxQY8ePHLCvvnDOnnryuDXVldmU+Nblyzft/QsX7fat205yiW9hCQrVoNcFbwOBjMK5GFapk2lc21CuNin2aEBGl5n7hEHChH0GYIURr1NfW05lLpCqtrXg2OyVAQLdACSY31CG1n1tkiTHrZEFfVSfM+p0xBc3NdTrsUqsAfYf/sN/cAJ15tw5+9/+9b+2/a27ZbKt2vSCyCQvHpAZy6vT0P9krE69FOlA4fFJ+LwUj6wSQLIJ/Qc1jOaiesKWEyuSypqzt96+YD/+yS9Elm9adVWDE7LZ+SkXkbW6b1vrHolSlghNWdu+PQLjMdvWvMPiEpsjY4t2/dIde/3dd+yTW5edGNOTAMN2cSwsINQZKyo2NG2zvt5+WQpLPrCJG31mZlzgYgaeTG5tKSpfvSZUpECl2kUyKcMqa7YqDCNZYJC+z4/jp8HnsO7WFttdST6GI/aI8PEKmOGhQfVYVqwmXJT5OssCeqHr+W1NTbZv7147eeKoHTy0z+/f0X7FXv/dm1I5Hc5H6JwsPTYnoksMCVF+JOZIQdYZ4GxqbLQdUlu1zZXuQ6mUGma8rFxSFAuFtegoC5KbQVBXTUzHVf1PT865a+OXv/6lffTxx04Fdu3ZbadOn/a1VlCodGgCuphFUa4yn1b9O1A6796z//gf/y/75NIloS9uhw4esu9973v23DPnPJMpNVhYFhM9F3QbiM2VOA0JkxVQ4PpGJ2IqQppU4SK1LmjIQBZzgjPS22n7hx/+1P7Tf/479ewiEbNqS64m3VfCWy2wZEqKmeW3LoumzPbsarbtQvnuXS2qlHppgiwbHR+3e33dTvw673bbtMxtOAQNOjMrFSpuESeeRf0dqcISWYWFIrlrS+5tpEGo9BnxohVJokpVeIl0MmCl4ckz3s7J8WGduyq+tE2Ak3peSFhdfaNzAXgWw/KIfV/YT/dJS23lF+Q4d6hQwzWIayFxWdCvsa5WYMt1ycfSoQzGEb7R0dElPjgh1bDmUg8fib8SRo2IlMCMZ8l2VECDAMfYTUNznRVXFHnsayXjYyK0keeV4Qg6MxIVlUxHQmvcun7bbly9ZYP3B6VmEq6ii6QpGpoarVEbk+6Q7MSzzMzN+kSzEhH+M8eOB9UDcu+z/KXIDyL8rTff8F554MBB9fhS6UnQme9bHmQR00sNjz0PAAJeBBAhkXEXiCIqACmC+nFCuUHKQCsTjjiHNWSn1VCs4VGkAhL6l0yuSDQS3hfI34JQPTo8aAMDfdo/IxGbI9Jd4UtxtrXsVg9tce8kqz4SAESvg6BOqpA4q5j0hbQh/gXCyYw9QIZUqKyscgcdfApOw1gIwTvMJIR4MyQwLYm1pgZsatwu/jPvKrOuvsmHBDo7OiT1mCqRJdDMCTy5vnpkbWOV1HOLLw70wrNP2/NPP2Wte/dZtUz/xMykXbz4kSyMn9tvfvuOddyTBTifFliRyFKGAjBjYXwyWEs9AhrAi2VT31Bn1TWYxKVSMflO4FmbH/9WvnhTXECEl9AJWJiH9Ve6uwdkar9tP/jBq/aeJDGqHS5y7umnbf+hAyHMQeCFLGMR5qgcSF3mWjF80Sir14GCd/TWrVvKRL0vqXDp8iUbGRkROkttj3pCsVD5IKFGVkJBQJ7rUJlbahv/HoUrIFncKUQXVeJ8/kM1YWYy/jImlPMWirGJUV8HlnnGeIRzhGKIWFL6HfXAKggEIOGGh8kvpdTTJPkQs4QPNKqX0ZvojSTiQ6hcHHAAh97BJDDehMH6KfeHRjyKjGEBOgnmdbZ6Ew4saAFm/Iq+kJfpqTndh6U3Kj1mhq1IDcAUk+ExIvJEhvWXmy/iLABv39lsBw+32eknjtuRQwetZdcuVbzyJVLc03Hbzl84L9F/2foHR1VEqbp4qSpLkpb7uAGQ5dYPCcngZVFeiQTEh1VbJ5CoU1EWFhYiCjAsfcoQR44PcxRrf2VlteqjUNJzxi6cv2i/+PlvpIZ7febhmSfP2oFDhyRx893bjeTykATaduO5KdU7nAi7CaC46iEG9kev/shaZRoz9fPXv/61v3GTOSRte3bZ6ZMnbFdLq+3bd8Bv/iDprgAE1JPAhEsXfVJ5AAOJ4r8CkvxYlioGoNxp77S///u/s3fee9/iRWWqbNY9wQFXKD4h60ZAyVpftnyZkoVi9/X11TKXm30V6foa9dzKWl9HnhWMAF+I2QixFyNjk5Iqc/pOMBQrACR8Eviy8gSRY2idxQUJSHbPpEDDHCQkpnMLfDNqOHwM8DJCJ7EIIZbElRLMk0ol1HjFVlNb6YvW1MiMhLcVl8Yl9mUeS+4uzSdsYmTUxqVq+vt6PLh5cHhUgKNxxHcEFlTDyhLPyXLwqr30LKZpJCWp5qXW1/w5SNLaumpXNRUCAh0YYltegYop9Omw8BGuZ5SZien9ffdtoH/EA7QwCnbtanJLtYwVFiQNWaWbkXikrk/eFzCZkMYwCy/FKlbnffLkyQAU3t37ox/9yONPGDVeVWUw3fCnP/2p3bh5y8nSiy9+3b7xjZfs2NEj7v3z8YMNaeEw9K9YPMqlKhbwUEDUDlLFnV+co40Qu+xY3C98441f2w9f/Zldu9HpgcUVAkB+CdNN1ZtQI0I8YzBxiXf0PgvV5KtHMcsvJlFWVl5uzdLZzSKKrTLTeVm1hINLuaRIISEGFHhKRPO+JBgAIrKcBqDXkC82jxhTZSG1UJGMmSCRKAO8DVJZWsq7CcusorzSnYI4BOvFQSpZb02SjrETzNfJyREbGRrWNu4RfWyTUxPONfCUitGpgQh41nPW9FvPX1tJ6nokAqGgJgsUMjnj8bmMsO9QB+FV/4XqqICSBYx9Ip1UZpnyhFoib9Q7oQHnz78vK+oDt1x2bN9lZ544Z7v3bFdHzHZ+gi8JVbcskNB8cE8GeRnbYUIaMywmpHbLJbGeeuJ0AApv9AQUu3busifPPumNy+Suzrud1tHda9390qNST7Qzi7s8JcvoqXNn1aurtEdJZE930hd9qmLX1EsEEX0VIPTH0D0JcxRwEGWPCpGQU2NOSWdfkhR7196WiByfnbGmXXustLxK0nrVVpMyfyVdilSBcID1mMkaW9b3LJmq2qcC4hmuUCXxFgsqbFmqCdFMHAZLkHuQjogp3liW5YK3gOflNHG2qNEg8eBRcCikoasBWozBQmWVMAZUEyVhN8cdUALx3Oy0h4zypnbGYrJUH/CsqSneRYjqW7QFNQ5TZD2EU1IXwroukMRkIcJJllMsb0EcSbaTSCxMeAeAQN0A0qIi4mzgJQWuhsqIgamt1/cKz093d49dv35DEoR3N2ck3Wqspq5GBDicU1CUKwmGqklKemB4qDKVGUbfUXF0YKgBJjF0BNJfKTX7jDDxACi/+MUvjNfGHz9+XBWi6lBtQHAmZHNfk23/sWzujz/6SAhPSxWdsr/6y7+wr331BauqqAQDSqr5dfwYbkyqqoHIRtIhkseAIFF8UE9QgsOoolZWF+y985/Yf/q//87eENkqk9VTXdsg1VAqoynbYtrIPIWiQAsqKFKD1QeQapA3JqATXpilhyUTiwJPoUzqRvcqog4I62N5r9q6Bjclc/M3p7p+tsRsPN6COuN+iGmppBmJc9aOhTQP3dc2fN/BUFJcrvLFpO7SUoesOCkzWw0DWeQdhFQIop7XuMTFXwizWFqcdbCihiDelKuuPsQVV0ml8HzGd0oEGLgIEWm1NXUOBjgNA4iEgVy/fl11kG0HDx60s2pghmDgLUhWltfgjWe+WreA5fHNujPSFIvTA8r0xwqUM8QvC/gNEgbPPXV2g8xOTUt63HX95n599aAl6d8p9RQWv81VL8PhRYMkFhdkhdwXYJY8swzIERuCTsHVzQgqUfE0GKOy+BOoGOADcgBHmPYIWRSkYPY6u0C9ZGZuyv0QcwQfS+QWq/cwoYxrmO2Hab2mCqTnCR6SCPAIBr4Y35GkwHWdi9Op0M1sxkdY/YBI9PtqyPGJadfVBF7NiLcQ7gmfwUcxrU/8BnOyXhD507JOWOEZMsjUhrGxYbt77647xO7du2ednV12926vOMCITU5IjbFSFEWUhRjLL7f1bPEf1QeTxJifxJgWzkXyzZaTzXxqmfOqU8swYyDE2+ItJt4W3lUrKym8WYPR7xAIXUxEnFR/qch1RYlIpuUKJAN24YOLHv5BsPmx48d8New6qUUGAAne8gFSdViejTTlm3q2gANACGRnv/K4TBRAjto5ZYmFpK/OvbdlZ5AoXfe67Cc/+YmH1Z0+c0qiOVgWuMMZ3mdSEeYSup7eMy61xNgDMQ2QvBPHT/i66i0tLeRgI6nWkNHKDGMiAIPkSkiN7XpZGz2LEUxmA3b1dPuY05XL1+3atZu+9BZu/bJySZjqWo+QpzEY4COGg+shoQX5xFUwjsHN1RhZPFuqRBumq4+m6jgDjAVFzEMi/kKNpX0eaSe1FqLiADB8BfaPflFFptVEOGWyRPySvHou4demtR9/UGKBeFURYl1HhWM5mKQfPh3MbiwWAIsVR9AVUtWnmKhRuD/hDgRdL8oyw/leIPXCSDC8A/7lEXuoXZFn1Eh9Q61zlWQibfd7R2U9DagDjKmexO/Umbdta/J1UCoqylQ+Ig+lViQt8Ih7dJ828rkiK4rZk6hPt3WUL6a+ZmTRFheWqmON2P2B+/bsuZP27Zdf3ATKP/zgH3wt9ifPnRFiMY+SYr70MInLJDPhiTGGgGYJJPO+mIsHYUsUMxHsK8+/YKdPPyHStcN5AmF5iDYHhgMFLhD4QESCaWi+wgsAC1EgqdUlmert9tprv7N337sgYI7qhJikV7WIWJHOV++S2YobjyWs6AnocsZEGL8Jvh26DLJNd1RZAAqNkKXezkg0JJaNSoK8Ylbj9iY/Pi1UnAhYA6iVpACp3/hgiKHF9Y8Ti2mayQQqA9c6vht0vi6SBGWZCYDHwBxAYY06l3gCJTnH4uK9y4AE0Pi6MFKp+D5YE7a8skRqJt+BTPnwlTDoWSSgM9oLeBiwvX3rlg0O3Xff0P59+z3mlTZclqmNa4GyUN8B/AKn91t1BvW2aByHemS/+25UfsI44Tu8Zg/f0F9/75v2vW+9FIDC7D3MY5bWPn3mtCN/USiHMWNj+9sdZAlFD6LT8Bs7e2RoxBfzx31NpNnBAwftha88a8dPHHPPIOQIgNCAVCRzT0heAGUsTK1QgyJZ1NiYavTA+wJIe2enr5vK1j8ggiaxiNuc6Lai0nLLkuVED6Z9vPdQcMZelH+eReEBJT2Ily7l5DC6WqTG2YiVkQRBRcH4Ibo0lq95r14VuI/E8Qogk0TKVTkkVXhbKOMpWWsCnIBCiATzjECWcKVNX9RbGfuiQRnPolFcYume1Nn4xKg+F8VR8CTzepXi8PZSARa1im8ol8G+3HVJBrhVtYNzboZ3Ew7Y3c4+Y7WB2vpya2lt8Zl8rJjkKgruQdlVFxBnABy2AAQf+eZTdYNVl5a0XBE4SAVqPyLlcB9gFTYLD//ir79vLzz7VOAosGyWr8BSgDxBfuAPeANxWGHWIZZpRG5OTtCdeDbDq0OypNfnrbunx3r7+vR91iPha2tq3d8QKp0RTchsAI5nXGChUGwBOKFXYscTMFzH20f1HMw2VkPEiwvKE4kFLyiLARIJxjWRBCMRowItC0CJidusWUIkXE/zyfBYL7y6hWg7nIacizeWzXuYWwNwJ0aZxSkEYN4WRjxHkIzRpPTQS12VqX4IJEeaQbwL1PMBB+fjr8A/sSh+B/mdEfcBrPhxfJpKFX4Y4l4LHSiofuJYMb/pvLjl52bn7fbNdrtx/bZPO8Fk3n+o1QdnfYqFS0QmxUuKKA8Ahc7MvqAW4YlIduYOwadUDjUlK3fzGZbeyJUqXXTnK8LiSY/OPxH4aQSUGzdueeMyl5WXCsApKBgijAdSaCrIgcKnGgiugIMIsFTJukDgz4ggMi5B7yxTL0DKcF9vQFU4jYXbm8wHAIVKpks6gHRvrkX8Ed1fLHFMDyNMAN6QXpYoV578NWeSKCyrhSRBikCiV+ET/oyQRwCK2bumXoPUYSQVVYWJjFgnRaYwDe5xGrqGvCINyZdurfMBtPItdeFTZ/XJc+E+uTl4oJX3TErbssh/uB7ehYTCEoKksphwMrmIzvXGJ/yhrrZG9STrDs4kgBQU5LmXtaQsDOQVFhSLKy5aR3uXdXTc9c67c+d2kdWjtnffHlfzvsaMO85UduU1ACN06tBmod0EiQBc1W+Yoqvyi7Og9uEui/MLNqG2m56Zsj17dtlXv/KC7dWnv+tIN1onQPrHP/6xz8I7cuyo2HKdxGXaX2OfUsFwIrn3UBsPoALpqYhkdyDpmehZ7HOQPyvrBbDwu6ig0J544oy99NJLtmcnr50NiVFZLCLEo2pclS0zUoVBLKKGuD8ARfXh/CECnRjdbpnyvAigu2fIhofDHGbEOYAlRAFdjuc2T+Ck12ABARDynqUGjcE1aH9qVF+CP4PK5TtkFuuNilXD6xM7LleSBEytrdNbV90xh28IUBIKwLIW8ALCCpgdmF5ed/WZEqh5Azu9m/IxkosfhFFdvMDEqfhqBcorXuOikgJJlxJrbOAdOuIJgyN2+3anPkd1fZ41NNTZrt3bZWnK3BehZdiBzuZJH770hUCAFCFRHrgJswoivw9qEEnIYGk8t1DqplAgTrpVeP3aVam0BTt39ox977vf8nVqayul4rk9QGFc54033vbXllTX1fo7e/Pyc62vv089YN6JF6KWivMchQ7o38kMmaU3sqQlYp11R27fue2BwQBne/MO2fRnfezDQyslfZjFh5jGtqdg9HJIFg3EYBzJ2boKiQMQyUTPAYAjsro6Onr8vYJ94kdjY6MOSqwPAMZixeSNAS4mgUFY6Vm86JqeSwE4D/OU8SUWq/GyyMLyMEf9Uja8nExwl2LSMUiu8iqi6kFaOo7lFSwwzFupNnETpEx6RUBRfa1gaQhkSDHCFINXt9xVDhYjYQaAzt/GLnM4L47Kw+vCGNOMWx6DA8OqF7PmbdvtwKE2cRJeqM0o/KotLIoWCBw8k/ZAnbvkcLW+ARQdow7Z7yrH2xDLUaARUSfMknV+UetokB07muwvv/9de+H5Z6y8hDbSfXQ/BwqNeePmbXv3/HvS5Uv2F//s+zLFaq2js92mJ8ck6hPeyxGnJBdp/kA4QeAFJBoUHPnic2qUnKwc90N03euxnu4e79msHfbKK99who6fhdZYV+UDFieY3Ef7aVieQ4p6DUBAxCKFeM9wMrHqJJqJafg6env6fLLaJF7FqWmJ6aSuDZKDymIaJm/w4DfgYQif2F/ILNIRyeIVyfO4ThUtnaV8QOZlSaQkXVeSHlFGRaeTQYRTkVzsq0dJfbBiJW/ywMwtKmG+EZPZiUbjtXVYhEyVIEIOr7K4XlW51Hex+zvu3e1218DI8Ji7548ePWSHjx7U8VJlB6uM9yIHvocEARR0KDbaJwwRwKGwpiQ5dB6qiLpD22TLUsQ5ydvdB1RXg9pYvoOJ7q9I6r/y8jdEP6oEbMaggkon785RUCWI3Gs3bsi66PNXtbH4r7+LzjmKzDssgI3GI3PoOjLkcFHDhuUoAomC1FEYKoQAIsxalcxNLgYgMakBFVM+ME3p3fTqdVkUfm8qXgWMzEOdrOfxLPEF5YO3h/qsOIlyGoJKhtwVFuV7z2Udekg0E63xMvMaFQKyIeaI2SWRYThDYpFtwQco4Q+8toT9S1K3nLO4MCuJOCVrY0q9d9bmFxhcnJP0SjhXALRklXx6eVEtkhZMbiMyvri0SCS1ROpwg2eRP33SCAAECdPY2OzjRpm1tEDSZVcv37L+3lH3Sh85ctiOHD9g23bWqh6o22C6h1kD1BN8iS6k+hHAXVaEHQ4iwBHmfEsyqt5ypWrwGPOalq67zNvptLTKsrdlt/jIc/a1F5+3vXt3elnCbeFefAghSBR6Eivu/FA85ePLl+z4yWM+uQowZKRnl1XJiNhgbulkJTobm/MUNTIZ4RiWkUd7c0QAKC2p1LXrNjQ4bO++/a51drRbc2ODnTv3pI8X8dp5fAd5MgepaCeBKhwJokuOua+P5gIWACq9wOLEuJ1dvOoYEfpEqfP29IW5BeM1t1Mi6UyVRdpg7s3PyYpbUmVLj8NZvHJVCc5NkO/kGakpEFMC9gUeIvUTU7cQmUXnUFbOY4pDUUGJBwkhSYgFcRCLcyBNfJ/KxAaYsGjgUYA4LulG3TFCn1xkAv2YA2V0dELn5dvetlbxxf1WVVeqjrIioM4pz6iUXNWFOiW6MYsOjFRm0laQyLQZDUOdQBcgtV5OFSiZWlMdLIm0ztj8zKRLy53bGu2ZZ87a00+dsx3btzl18JNJG6AjZa1lVE08S+nqjdv21nvv2cWPLlqResVTz5yzOqFdObNZmaW89ZJbZLvzKVwUGo+sKoE8BxCEFPc0Ac04h0bVU66KU3R5Jg7u2ydpUqoeKRKqCmxt3W1nzp6yI0ePSCQHvbi6Ft4gyn2RWDzBK0XXEyG2rEKGV5xIynmlBJLGe4AZ7CMiDwnCSs9siGYCcRYFIvjMogiw+0AEGCeeOpffTAvxpDIBIKLyeG5WTNxBEs+j7dWQmJNE5hfkF3vjYwkx3AAY3Lkmcg3Pw/OLyx2goIIw98tKynxC1oAHU1+x9ptdlpozkdh6O3B4lzVuq7YyVo1EQisfEh5KArP+B7xhsSCBRgBY3eAfAfA6rv2ABiAThEX9LUhyToxNOq9juIHpwk+dPW0vPHvWWnY3W12NpL7A6yrNr9jYaGwalH9bgcJs/467d33lnfbODi8kbmGWGWdQDTWA2xeJEaQG94rUEaaozEtljvEObHMapqe717nDkgdu11hbW5u17mnRk9c9JI+4B6wfXp+Gntyza7dE4V6rrpQkkqh1CaIKoSF8nEiZRhV6/6f3qxRIMQBCbgInwYeSUYUtCyysGYK3FvIpy2xRagPVIaAgkQAdwEmKsAcvKmMfQboQh+KSQ0BlnlJ2TKoPNSOQhOkOBC4HTyl5CxsSFjMbdUxjoSbDyxtoSCbXjbMMWF+/zwBkKB8HX2lhpYh+k+3a02BV1cUi3ozR4J5YUfmQroynwaEAhsqv+qZegiUqsonqFpLwWpNnBD+zEKemwnuTUUMlogCElOIrO/PESTt5/KhA77fdSMog9a0P6IhzQzYlVz3of/wSWB6cOz09Zz//H7+wH736qkd0NfMOYpHP2vpay2bVXBO7FzsHJFyAE8dDAtXbeOdfbna5RNuSKqPL37a5uDDniwI+//xz7uYn6IYewEgsZBcL6fK1S3ZfZm9jXYN979vfsWckCiuk531sxMWnnqk/zzdAhUTjDNMfQMHRRKJxmK8DwwcEwWcAuANZRYXipXUzUjtcCsliicxGQMi1lCxIMrUSF/qT+AgVSL6Y/uG+GUkPnFVcQ4dxvwrK3cSn8opcSmKOjoxO2pWrN4zFm5msj2TifQBHTxy2+kZGiNd8lBcQICvBvHM+Wk5mPMAAFKhDxmqY5upqZU0ninvgKyITANPdCQP3raenW5RhWdbMTvv+t79u33rpOZHkcgFelttGQitEBgOJ8nvuUUMbycmsV8JGBXAGLmr4BdyAuTN3JWVwvPHmrUbxCwaoqAjEnOtENRpWEb0nxuipxcXaR/39vdTXMZEyFr1lUR6W1S6VOYhZxxABPZmez/1Y4alXEigxv2DF0vssPEdAkPdS9WCkUPA6oqtD4ULvx9ogNpaxlOCww9SmIbNEZoNE8Db2/PAsBguRCBF3IGods5f7BPM1iG2sEywVfB6Q82At8cLtMDWC3/4yTH16Hcjq4EJAUK4Gqa4ioLrIQwwuXb5ib73JNFE8nzE7eOigHZThgH9Eza9yAV4aXhv1Sga0IYmwxpASAMM3HcKYQHrQaWiLuOofwDK1A6J6U8YJIRcH9u+zb77yij197rQ11lc/BBLamLoMnWIz+TgdFbaRsnSiOvfmjigtJdIeJf7GW+/Yhx995NYAHtsGZtnLyqioIuyOZbJ0ra4nGBm0M6qZXEhJFzK9IGHhjd1H7ZAqBP8JPQQ1QRT6gIDBwCMr+hCSx4rJt67fcDfyvr1t9pUXXtB1bdbSssfnGUXZXF2XelDPF268oOQfE9ePCSBIBSrbgaRK8FhQnce5UcWQD0AWGkUX6j9/Z490PhYZ90BcU4FIqKiGOHVrbSFn/BxtrnoFaPiJvxpGgJ2YmJb67fepMO3tna5uqCei8nC/19c36HxZIolZ5S1YMRBR74AUUPcHJFg5vh9zfKPclMNDJ/WbF2UtzC26T4T6xKKD/zGRD6J69slz4kAVKttmCbie+5C2Sg/2kz4TUMin91Yh9t69bnvzzTftN7/9jfX09XpAzSFJibZ9Bxw8BOPCF+AbrPc1MTTmLur9B/Ypozt8PgsTyAAthWDKA9NAJ6aI+Zj2ZaeQMJDQocEhe//CBfe+EnTEmqff/e637Otf/5o1NdVu5A5ALEvUhgFFahdJQjnYIguM/AOccIp6HSRQAKFRo0qiTryH6ryg97lO4NP94BrEv/j7fvDDoNa0z++r3zSmx5So/EFKSZZK7JcVV/rac53ieb/73Rv29jvv+moRRNwdO3bCV8HEhA4DpeRFIBAf4748HyeZSxQlcqJdfgwrhhAI52EcFmgC92GpM9z8HSLI/cY00LNnnrCXeW3t4f0+8T9MtBOoN/DANREgSJQrSn8QKNr54GwqzH/qn1sYW/ADWHgDAxOeevt7bXh0VBWVbU3bttvO3Xt8dHNAOrG/t9/KpVoYJPZ37+hm+Amamxp98IpxDRqPIKGJyXEPHMI0F3XwXjM5PulRWkSMEWnPNZEJ3bp3tx0+csgOHZJ0IrJuPYwZ0fiIbBKFowwuwqnsDfDwB1CC0A6NSiNLBug3ntRUaHRtqELnMOI+/pYLnQEncUDpnt5QVJN/D9KMiWGoMczzm7c67eNPLvt0FMpHI/BOQNZvZSPOhLVasPoCBxFg9YfEcH6wAeQgHbVttAuzAigmaliQtRWRVXjI2PiYX1+lZxD1z/uND6uOMBrKy4MV6Yk8q039ebqR18vGFiVv/420df8DoPA/XyOwhB6yibIo0aAXRMZe/clP7OLFT6ykvFI2v1Bb3+iveiPa/EDbHhsbGfY5JBP6XS5Symv0T58+JX253we7CAkcHR+VXT/r66Qk07Lx5xMeqzkzNaMeEt6AzsR5wvd6erokvfLt7Nkz9u1vf1Nk96xVqcKd8Um/u7nooIl65EYZVOlRr/UmV9m5L8DB2kAyoGIgvvASpj/Ai6iiQJIFGH1H96OOkHx8DxKKgUZxHPVqTGJGzS9+9LH9P//wE3v3/AV/JvzgrPLa0tqq3p+jMs75M8Mab0g7QMIHalI51D3hHPAwTHWXXADEc8QWyrMik352ctrjgrBqtu/YZt9+5WX73ne+ZTu313HHkLi57hupMe5DHZEAwh+SJKStICHF/t2/+3d/ywnsDxeGDJGZR871hE6HL+AUYgEexiQmxuEjaYnHENzE2mQD4jespU7PLCrkJYvMN8FDGUgh+5EqcA16TlJqhwAgdC3WB/cm4GebyC+rQHENY1F9kmb4PAjD3KH9NLpXnvKNyqCiffgAdehlUFm0jzoAKG7eZrEeSLaPGbEu/L2uHnfMjY6MudcYtwCTp3i/H28O9YpVV+R+SBxIMPvYiguxzEJlM8Xl5z//pb373gc+zkRI4lFtNCKJN2Aw/uNEUZZb8IkEVYdKwf1OaCgvnITHCR+0RDhfZeS5NAngHZHE7ZaEH5eqZ4rpS1LNX3vxOWtr3eHnPEiedzUMQPH6iLaHQUJZIqB4nT3S+M5RNr4/OMj50Xmhp4beqb3eIKTJqTlf2Lavf9DaO0IMaTyfV89Wujl86+YNu3Pzphe+nHmvsiaYr7x7906R091WU1ftYpzRSkaHFxbDgneEXxIsPLoxreLg4YN26PABd3uPjg5pGxRocm17c7Pt39vqc36ZZrJL6gnpQWIKKI0QTGJVkvJPhSPuGcvyoYSuXhuSZcYzpgR2ZkYyR2inSCbX7lQ+cQBWlZep8YLLnHpw9SQJ4s/RNiqJyVoy7Xc67NatmzY0NCI1xvLjjZK0LR6WyLxmRuApL8Mb3CdIJ0bOUWeBh9CQHIOruedY35FeWDZIljCFIqhroj3rKqp9KugR1RGv0GfqKlNWPW/erC4//LejxwG9CY4o8UyAEgFkEwcIkPA9jPVEqFAKJ278UPJgJSpbO0FgdC7D5SzRderEYVVwvZNPYlThFayeNKjGYNIVVgB5xTtKYyAmIV6M1RBRjo2/IHM4lUjJ9if0kmhxVYqkDYHRjJIS1AMg4CbbtjV7fjo62u2Tjz+x/v4B6tpVhlthyh/Ej093PHFQWQ4mYa5Pq/jxT39mb739rvIyJ+m15jMH3z3/vltujHF9cPFjGxwesaKyUqvW7xJJFyqd5I2tTwYDKc95Ee8fvvqq/fwXv/Q1/ZlAd/app32VbyaN82zm5lAOnIYAFrVDGZEk7HGAqAGRpExx9WWfAI/UHP6ttKQ1DkvUOtuCVNwuEeJXXnrZ/pe//ksR12PGewdpH8aCQjsBSLUb37Vph3IdbZsJMEQptH04zv7oGPs2/CghbR5kCz0ICeJOLH94eIzO0ucmoAhs4WUCmGMEXU/JRBuXKMczq3p1kQlgIFE4xhZUaC5meB2VQmMye5/zic9dEMCY8cfTGDBkdgCLFRcUMvqb62oHf0zzNol05eteV5edP3/eiTaJyLviomLX82xeUHEIAsZv3Lpjr776U+3Pslde+ZbVNzT70up3pX6at+2Q9Doq81u9Whtm6TaZ9zVVVV5+SCRv/WCZiFd//BP7wQ9/4Mt60nn3ypxnqsuelhYrFUAI+VQ/VU/FUsGTigSBc2xYNLqGsIbgcgc4smq0udNMCZ8MhJVxKkgxg3iMtp86ccL+4rvfte988xU7uK9FFg3vI/BLAlEV7wkNrh36L7RkkFgR/4zAsDWFax7eH/3m84EcinZuAoV9wRETQLLx0A3LgQx5gZUqyoqE6hO2r3Wn5UmnQ+5y8wpVWXHdBCeYdKs+GR+Bx4zLLO6XymLxHHQzLnC4CovaMNd4aYnXzq96wDPiGfMZlzuudhq+vLLc2kQST5x6wg4cPOKOvpu379hPfvYz+4cfvupTF6YFVtREPFcA9lmJWT47jsWOR0bGJcYX1QHiRtztSkYWiCTLfCLt7y2OFYjDxAt8pUbv8Z6y3DK6fuOG/UQS6b/+/d/b7954Q2pgRpJ1t5158oydVH5Yk5XxIN71R+ASqxvgcncyLdBQHveHOFbwKodwROY6M7aEm4HwTDjfyPC4td/usL7uXjxuAsZ++/bLL9tf/cU37fCBVpnbYSFiXbiRQ6QJX2gf/dFmLq0CiQ0nh7QVFHx/uP0390X7H1JY7ONBmyeFw+FSfUY9FFTqd7gHkoflGpg0zjA/nssQOcXkJsCBDg6BT1hSqACWBZWqkXph8I7MwQsge3iAUR10D/Qsz4tIKIBFt8+JA+GDYaI4KzKfffKsPfPMM5I8JXZDvOitt9+26/rkZUlbE4CskCpBGhGr8aFUzLUbt0SSJ93vMaFG7xdJJJ6FeBLm6EYT9FnW4077HXvn3Xftk08+8XGjgwcP21PnnrK2fftc6s4vLNhCAlNflpLKQ7QbpjbqmxRJZQYxGbgL71+mqDGXeKhK2gkpw7wjHJ4T4xNWWV5hzz3zrL389a/7K/RVHQ8nbwjkhp7h3x0mEX68LQm3IBTELb7QcP4ZfSfRDlu3rekhPwoP+P20eSN3CEmiwMwjEIUUzulov23vf/CJdfZM2ocfXbcb1685WRTA3RKCFOousloWjCC2xsZaNfBT6hlVUhvtPpl6coK4ESwEx4p6WMZ27WF2gKyH7Q3iInEPdGYwDmnBfF/8HQT9sAbc9NS0x6hCAmtkneFL4JUiLJFBWtQxPMBE302KPAM2IvzbxXl27Nplzz33vCytZo9u56WMvNm0Q9KK9xV13O30OBRUJi94YHUq3pWDJefOPN2fRpbu0qf4BdKX8RiVGcsOboU6gzp4X1gDOICE4YIcI3Z56H6/JMmgDmZsW3OTHdjXZscOHfT5OjvEzwhmCr3Ui7MlbbadnrDx7eETf++SP5AiOGwFEOkhjrJ5463bZgo3CSQx3Ojhc+gxyJoVSQ7UBEzfTV5VNj2OSuF8/DOpdEIEd84a6upEIMvESQgMWhJPUeWuibeshnNLSvKtvr5ChLlUDRSXWMf0DeMqmJiuorSvqopF/3f47DjeH0QY5z2ZvrxnOS0VwrQEsg9gWc6boQXWUykToa6p1rXbG+1A217bu2e37ZblU6H982q4jy9ds1/95g1778KHsrjGfVrqiVOn7LAsIkCiotpSesmBQmSfg4O3dAkQQITqQSouS/0w39cj4tbVYXShdqmOMrY4v2Qz47M2Nc7cZdaNW7bdO5vt+efO2fe/9007dfK4OlOtrKf8gDBuSv1vVr0SP8L28N/mkc+SHpUyUXpEovx+2oowvrMFOzwcC8cBD8Rs1QZ5tful65IQfTYtkvj++Yt248btMNtOIoJofuYILwkYK5mUPXX2STtwoE2VPW/9fcM20DepSmc6KKpqxWMz2vZDXOustIK40nwrKijVZ56slHVf2xaXNfnxHquKRLxiQbDwzejIqDjJmIcXMNaEx/Lw4cO+6gFRdax8SKMyagu4scoYprh9+7YxJxuiyzokeIdZO4YZeETWIcrdrY5qEUBQ4m4RuUQRV6COBMoAEDiK+IgDRb0TviYpAnGd5GXXPb02PDgsaVFsp08ft6efPmvHjhyQ1VQoI0F8T/UVVDaFVH1TWNqS7U+UHpEov5+2AiVKwacSUjgeSC9mGI6uyWki8Bck/vELZIyZcUxHXVtL6nfgGrx6Fo9qaVm1pEWtJEepTGNW0J5UZUrfqiGKivOssbna6hp4IVMIBmKNeWbpBecUw/xh8ALuEkCS7eGQLMvN2iGMhcCFWJaUWf4s3sMLt3kL2bj0P2NOSAr8H0yHuCQrhu3q1es+JAE32tO6S9bQIX8bBSGNcJAwfybUjX+qShwoAh15x1+CusGTC3ZciqyLh2SxYlWe+0rGxyb9FW39PT1uBJw8fsReeulFe/qpM5K0lT46jeR0n5Dq39tAGyqZtKVJPvf0T5Qom+IJRw0p2gd5a793x25Jrw8OjIiULci867OrV26Kf8zqzBB7S2Xj0j527Jjt29+qxl+19va72rpUOfEwe66K9cWqrLpOvZiJ2WW8y6dCxzcWs+MlAV535AmyimXFgsHE1oTpG1gR47Ku7nbes96uPh9dJU6XDVCH9/7Q21kFcc5BRUK9Qo53tWy31rY9vmoA+wh6QpU6wVZPZ7qGSzKYiCQqZSOEAemRYjqqqs9BQrkRNlI1qOS56Vlf0HlwcMCXIj157LB7V8+ee9LVLeXxWZD65OpQ73wLpi772f5U6VOBsjVFp4ZMPwwW9jlH0WdGkoMXF3780RXr7hlQhWXEBaplEg/ZzVt3vAdDiPGmvvi1r6mBs+1Xv/rvzilisXz3Z7BMWEGRJEcO0zfM8gvzfG4urvXCwhJZVHH1zjAiiuSi0RHRrgKVHyrVfRF6DsBh7Xlm5xPC4NFtaZakYKwHUzV4npGIAIyF+1jcl2tZcJjpFtyf+zL+EohqMEGjstPL+Q5okCw+7SMTGpXI91yBm1jefqmZjvZ2nwKze+dOe/LsGVltJ/0Fk8SlFJeEUXY3p7W58PZ6Dhst4KuB65Pz/lTpHwUUklfKxiVbweImrVIYSGSO7Zwsi7u+YuPc3JL0bbU74Xr7Bozpp3AVrIodO7fb1PSEvfXmb/y9NDmxAp+MXVNbZ1U1lWogAUEWEkBhBh0BQzQko7VSdm5J8cYq7se5JIglLYcEQEVxjCBmApPwdvoqDQILjY2zC6kAyAnI4t6sfYbVhITA5R8tIOiWCwCBqAIKb0zqQ4/juQ4UzuMXrS0JKwlCnAhTYgApJjNvyWgQMOBLX/nqc7Zfqu2hpBsCEiSlI8L/CxvSj+fxawsD+NzTPxoopD8GliiFZUSJulqX9JiQGupw/U9MRJVEOJ5LRDdrkvT0dgs4U8aaZ4y5MAmbFysQI7pbFgjv9KmUxcNqQQCFyHYkB0DJUy9ldWpWGACgIRvUYpAo7psQUPxlTWpkB5Skj09jUN4gm1xDUXw+jycaQrlTg7P5y6pd4qg8/HbvKsd4ju6r53HcQSLJxb3WxUV0c5V31aVIb1eP3e3odM5x7uwT9t3vvGJPnD5mLIAMuH08Cj6slvdFjLwg5AeZxXcAwje+Kx++x6H4J0ufSmajREWQHgXGHwIKZXTLSAVn/IWwQHqoL/pbyJanylkRoWVlxmzbvWu7xO9pa5XZisRgRaNhWSsQTuJZeXEUjjJ4CwSWQGeeyXQJXPpIFXo/Dw6VjTc5VKurH/EWGp9mDV5Lfeg+iG7UiwSP9hE8jemuRhE4IJAQUiSEO/2EACQKAPGy0RH0HbIKcLwBAY8+iwrLdMNsj625feOm9bhKzbJTx4/aK9940S2b6gqVRRlw+ZsVOpbXpXZwHzqi/9YZ/A9MHIR88/26TtufKn0micIpAMUbZ0Mxsu9BYbT5Pv3xD4npif36R4dhLGdicsLjZGm0VBr3dljVmaAmhsoJGu7oYDGdy/ahtoGBIWMpMFYfqq7DuVWq76gm5sZgEYTVptXWaixmxZmkC9ZR5OchXkQ8h96tRsaJBaMEKjQ8Z/gYlD6xYuAolM+9poBC58BhPAxR0iIAgcbkfgLJ8qr7RtiL+cozPDxA1zPAOU0U39iYrxx18ECbvfDcM/bEqZNeDqpR8klXCiQOhmiqBL4h5VPJ/VW+hy1IFdASgAKw/LQ/SfrMqgegRKdSmRE4tiYKyHkhFgQiF3o4if0eyidx7NfSs7mfKowJ3KgSAOWR82r0Oen1wYFRe/e99+3td9+1gfsDPl95vyqcmfasPuQDltzKhbE+dU+kQ+ArUR50jMcILJyL5CCfAeTiJbiIdQckF/soIaoEYCCl9KHPcA3J/SECiZdlRZ1Hqi28uBKpti4eNm43r1wRQEatThzsmafP2otffd5ayXNVpUswYlw8JyqwN7ry4eM8G3XqeVaK1N3WeieFvGy6Bv4U6VOBEmU6KkSo4C1SZOM3KSqUi+8NPR+8uP/0At2RuXzp8jXr6u73OBJc6FRsaUWRwFJm1VUVDiAAyXgMG2rO43iVrxCXoR7v+iWIb8+vvpDXB4sqb4Cc03WaSxSmdkBYOYZk4XzAzzuZMXl9GqwAQignPpmZ2QWXbHGZ+jub6vwNoHhVkSbkKUqoXZ4TJIYeRj4faoXNOuWZbCDYx3FUTgDMca7/U6VPBUrUk+gJUfpDl0QFC4kKx7O65oQSoFDBnLP1vM37eHXx4YlRVp3oUiBK0kD24cUr4W0QV6/b/OKMNWyrttaW3bZzx3YfjOS5DOk7P9nQ+fRC33Rzx/yaSO5GT6RsROn783WuMOH5ZNTVVwFYIcoshC16IJEkBlKDwCpUFmptjjdV9Pb50p28lxhp952XXrBvvfxV2y6VGpLAtpoOElCNi4r1MZ4IPMoC4PTa0H9Ivt9LIIsK4timbt/4/PzTp5LZqHG3NvDWfY8ei1JoKKQJ4jIcf/S8zeujHeGDtnv0vkj38rJiK2at1FXW7h+0nr77AlBG+8qsrATJwgJ3cXEENagkANdDGEPkG30/NALqJ5I+HkoR0+amqPbTqBvSEC6zsr7ik61YtSmT0cVZeSLnvOumwHi1Wqesmdu3btqMVM7elh32rVe+Zi8+/5Tt2bnD8x0SZYnqQxuShC0qH7cN37Rv8/tDKTrgBx98+ZOlf5J5/HkkGiYCB9+pCFcnvl+/HHBmi4vzduf2Lfvw42vWfu++T/9AArPaMkt/19RUGm87xbLyS7zRIaYZl1CCjYCg3wCH++o/KsAtGz2WZdLhSvAQjy5bC/Oc1wGJzN5VgsBnFm1qYko8atZXPSgsyLVm1pg/c9LOnjtjLQ+B5M8jfSGAQhZQA5Ga4DuA4TvHAnDQ6QEsIcYj22bmU3b+wntSR68Z7wWGFO/fx0un2tzLiexYdbWxvAEU4k9ZYkzg062IQqNfQlzTOs+tGniM4ITPhyBmlgBHDQXdkG1zM3N2r/Oe8ep6/B+nZcXgFzlz5pTVVrMQsTgagPec/vmkL4xEIRuRKN4qXUgRWCLwbE2sbU8IJCPEBPoMDQ8ZCw2z1ERTY5MHHzO1k8nd3MNfQCWguH3D7Wl//Ycn1M1gqayASxo7Jn7CClJLNinVMjoy4jMmWdd25/Zmn+C2f1+rte3dYzWSZn/O6QsDlK0pytJWoGzdF+1/NA0Ojdnrb75hb775lvUP9HtgEbGsvDUE1zxLgK6thfVlfUwGCcKtkGT6hKgyloPKISFIEvNZ1t87Zve6OgWWUam2Cpm8T9q3vvmSnTi6388jERNLHgN5fxjMfw7pM3tmP89EBaNu+IyAwBaBg4QkifYjGVx96Hto6ZAIwibyHT8Kb+YavH/fo8bgH6z6hBnNVA/JJV0mcMhycRc/95BqwaTm7RYevil1tLC4YMMDE9bV2W19vV3iQKX2wnNP28svf90OHz4gUPiVnnxuj1STsqV8BUD/OaUvDEeJshGBIUoRgDDPo/3B1A4bYzhcGQX2cGxwaMjfBXT3XrdPoWB+Mx5TSC3rlzEKzRQQf/2tQIWvhfgYuAzroxAPy+oDBHrnZhVYqayq8vJimb7b7dDhNkmpFisi2kwpLLSH5SSzTCDh+WG8xg//2aQvnOohO58GlJDINr4OFtuR+ZzLwscPO6BW1HC3brfb2++8bZ98fFnqo9dWltd8uoe/EKqkVHwjvGqWeTd4hT38QBIIXw7TUFr37LGnzz1pT5w+IYkVOc2CJYVPBHe9Px+fCNkjW39+mueLRWajrESA2Pr7YZBwTOoHEuHOJ1qGc4J62poWl1I+s45Xvg0Ojlhf/31/LyBrprFcJo8giAkOw+KDxKbW+lZtZaVSZdqqRFSZP72ZgheXa1nIN3ouasf3Sbg8ko0vffrCAIWKJ0WgiIDzqJXDPgeDH39ACPQ7HA/XbjTYxqGtaXh0StZRv3tSWRYLjyuL5LBCY21trcfFYlpXVYbXyG5NmNjczh/nz4ebIMU2nhmK4H6dx6rnc0ih0jeJbJSifdH3KKtbwQMnYDfjS38o4dfghOgSAqEJZWS1BD6xdFiTjdFolhvlpUlE6ofBTJ4nggoQ+NOzuFeQIJvSi0cE3oT57rv+7NIXSvVQ0XxG0mXr+NKjEidKnnttarcHCYuFU/C6ctADqWhkv1+4J258Gp7rafRolHszBX8Lk9eYoOXP9XvpkPaFfIQz9UTPN2qQsyJV+OeUvjD4f7jxaY3fT78HEm383LIrJF0f7hHuExpPvwDGg32Ag1DJEGf7cNI5AIRt41ruwTWA6uEHbtxPuzg7+v3nlcz+X6siZU40ClKQAAAAAElFTkSuQmCC;" vertex="1" parent="1">
                    <mxGeometry x="450" y="580" width="44.99" height="50" as="geometry"/>
                </mxCell>
                <mxCell id="49" value="" style="rounded=1;whiteSpace=wrap;html=1;" vertex="1" parent="1">
                    <mxGeometry x="150" y="20" width="1360" height="530" as="geometry"/>
                </mxCell>
                <mxCell id="51" value="Prétraitement des données" style="swimlane;childLayout=stackLayout;horizontal=1;fillColor=none;horizontalStack=1;resizeParent=1;resizeParentMax=0;resizeLast=0;collapsible=0;strokeColor=none;stackBorder=10;stackSpacing=-12;resizable=1;align=center;points=[];whiteSpace=wrap;html=1;" vertex="1" parent="1">
                    <mxGeometry x="300" y="120" width="930" height="150" as="geometry"/>
                </mxCell>
                <mxCell id="52" value="&lt;font style=&quot;font-size: 14px;&quot;&gt;&lt;b&gt;Données&lt;/b&gt;&amp;nbsp;&lt;/font&gt;&lt;div&gt;&lt;font style=&quot;font-size: 14px;&quot;&gt;&lt;b&gt;de&lt;/b&gt; &lt;b&gt;c&lt;span style=&quot;background-color: transparent;&quot;&gt;apteurs&lt;/span&gt;&lt;/b&gt;&lt;/font&gt;&lt;/div&gt;" style="shape=step;perimeter=stepPerimeter;fixedSize=1;points=[];whiteSpace=wrap;html=1;" vertex="1" parent="51">
                    <mxGeometry x="10" y="33" width="160" height="107" as="geometry"/>
                </mxCell>
                <mxCell id="53" value="&lt;b&gt;&lt;font style=&quot;font-size: 14px;&quot;&gt;Traitement des valeurs manquantes&lt;/font&gt;&lt;/b&gt;" style="shape=step;perimeter=stepPerimeter;fixedSize=1;points=[];whiteSpace=wrap;html=1;" vertex="1" parent="51">
                    <mxGeometry x="158" y="33" width="212" height="107" as="geometry"/>
                </mxCell>
                <mxCell id="54" value="&lt;b&gt;&lt;font style=&quot;font-size: 14px;&quot;&gt;Fenêtrage temporel&lt;/font&gt;&lt;/b&gt;&lt;div&gt;&lt;b&gt;&lt;font style=&quot;font-size: 14px;&quot;&gt;&amp;nbsp;des séries&lt;/font&gt;&lt;/b&gt;&lt;/div&gt;" style="shape=step;perimeter=stepPerimeter;fixedSize=1;points=[];whiteSpace=wrap;html=1;" vertex="1" parent="51">
                    <mxGeometry x="358" y="33" width="202" height="107" as="geometry"/>
                </mxCell>
                <mxCell id="55" value="&lt;b&gt;&lt;font style=&quot;font-size: 14px;&quot;&gt;Redimensionnement (Scaling) des variables&lt;/font&gt;&lt;/b&gt;" style="shape=step;perimeter=stepPerimeter;fixedSize=1;points=[];whiteSpace=wrap;html=1;" vertex="1" parent="51">
                    <mxGeometry x="548" y="33" width="192" height="107" as="geometry"/>
                </mxCell>
                <mxCell id="56" value="&lt;span style=&quot;font-size: 14px;&quot;&gt;&lt;b&gt;Séparation&amp;nbsp;&lt;/b&gt;&lt;/span&gt;&lt;div&gt;&lt;span style=&quot;font-size: 14px;&quot;&gt;&lt;b&gt;des données&lt;/b&gt;&lt;/span&gt;&lt;/div&gt;" style="shape=step;perimeter=stepPerimeter;fixedSize=1;points=[];whiteSpace=wrap;html=1;" vertex="1" parent="51">
                    <mxGeometry x="728" y="33" width="192" height="107" as="geometry"/>
                </mxCell>
            </root>
        </mxGraphModel>
    </diagram>
</mxfile>